<svg viewBox="0 0 231 50" xmlns="http://www.w3.org/2000/svg" data-logo="logo">
            <g transform="translate(0, 5) rotate(0)" id="logogram" style="opacity: 1;"><path fill="#FF630B" d="M20.0277 10C20.0277 15.5228 15.5506 20 10.0277 20H0.02771V10C0.02771 4.47715 4.50486 0 10.0277 0C15.5506 0 20.0277 4.47715 20.0277 10Z"></path><path fill="#FF630B" d="M20.0277 30C20.0277 24.4772 24.5049 20 30.0277 20H40.0277V30C40.0277 35.5228 35.5506 40 30.0277 40C24.5049 40 20.0277 35.5228 20.0277 30Z"></path><path fill="#FF630B" d="M0.02771 30C0.02771 35.5228 4.50486 40 10.0277 40H20.0277V30C20.0277 24.4772 15.5506 20 10.0277 20C4.50486 20 0.02771 24.4772 0.02771 30Z"></path><path fill="#FF630B" d="M40.0277 10C40.0277 4.47715 35.5506 0 30.0277 0H20.0277V10C20.0277 15.5228 24.5049 20 30.0277 20C35.5506 20 40.0277 15.5228 40.0277 10Z"></path></g>
            <g transform="translate(47, 1)" id="logotype" style="opacity: 1;"><path d="M14.09 38L8.17 38L8.17 12.10L14.09 12.10L14.09 26.10Q15.70 25.75 17.15 24.66Q18.60 23.58 19.65 21.97Q20.70 20.36 21.09 18.47L21.09 18.47L27.35 18.47Q26.83 20.64 25.57 22.60Q24.31 24.56 22.64 26.03Q20.98 27.50 19.13 28.27L19.13 28.27Q20.56 28.62 21.93 29.56Q23.29 30.51 24.46 31.82Q25.64 33.13 26.46 34.73Q27.28 36.32 27.60 38L27.60 38L21.26 38Q20.95 36.49 20.25 35.22Q19.55 33.94 18.58 32.99Q17.62 32.05 16.47 31.45Q15.31 30.86 14.09 30.68L14.09 30.68L14.09 38ZM37.26 38.24L37.26 38.24Q34.39 38.24 32.11 37.04Q29.84 35.83 28.52 33.55Q27.21 31.28 27.21 28.23L27.21 28.23Q27.21 25.16 28.54 22.91Q29.87 20.67 32.16 19.45Q34.45 18.22 37.33 18.22L37.33 18.22Q40.23 18.22 42.52 19.43Q44.81 20.64 46.15 22.90Q47.48 25.16 47.48 28.23L47.48 28.23Q47.48 31.28 46.11 33.55Q44.75 35.83 42.44 37.04Q40.13 38.24 37.26 38.24ZM37.26 33.13L37.26 33.13Q38.34 33.13 39.30 32.59Q40.27 32.05 40.86 30.96Q41.45 29.88 41.45 28.23L41.45 28.23Q41.45 26.55 40.86 25.49Q40.27 24.42 39.34 23.89Q38.41 23.37 37.33 23.37L37.33 23.37Q36.24 23.37 35.31 23.89Q34.39 24.42 33.81 25.49Q33.23 26.55 33.23 28.23L33.23 28.23Q33.23 29.88 33.77 30.96Q34.31 32.05 35.24 32.59Q36.17 33.13 37.26 33.13ZM49.44 31.95L49.44 31.95L49.44 12.10L55.35 12.10L55.35 31.66Q55.35 32.44 55.82 32.82Q56.30 33.20 56.92 33.20L56.92 33.20Q57.34 33.20 57.73 33.06L57.73 33.06L58.68 37.62Q57.28 38.24 55.53 38.24L55.53 38.24Q54.05 38.24 52.66 37.65Q51.26 37.05 50.34 35.67Q49.44 34.29 49.44 31.95ZM65.92 38L60.04 38L60.04 18.47L65.92 18.47L65.92 38ZM63.02 16.40L63.02 16.40Q61.30 16.40 60.22 15.42Q59.13 14.44 59.13 12.97L59.13 12.97Q59.13 11.47 60.22 10.47Q61.30 9.47 63.02 9.47L63.02 9.47Q64.70 9.47 65.78 10.47Q66.87 11.47 66.87 12.97L66.87 12.97Q66.87 14.44 65.78 15.42Q64.70 16.40 63.02 16.40ZM76.21 38.24L76.21 38.24Q73.66 38.24 71.75 36.91Q69.84 35.59 68.81 33.33Q67.78 31.07 67.78 28.23L67.78 28.23Q67.78 25.43 68.81 23.16Q69.84 20.88 71.75 19.55Q73.66 18.22 76.21 18.22L76.21 18.22Q78.45 18.22 80.11 19.43Q81.78 20.64 82.44 22.81L82.44 22.81L82.44 18.47L88.36 18.47L88.36 38L85.45 38Q84.05 38 83.25 37.21Q82.44 36.42 82.44 35.02L82.44 35.02L82.44 33.70Q81.78 35.83 80.11 37.04Q78.45 38.24 76.21 38.24ZM78.14 33.06L78.14 33.06Q79.29 33.06 80.27 32.51Q81.25 31.95 81.85 30.86Q82.44 29.77 82.44 28.23L82.44 28.23Q82.44 26.73 81.85 25.64Q81.25 24.56 80.27 23.96Q79.29 23.37 78.14 23.37L78.14 23.37Q76.95 23.37 75.97 23.96Q74.99 24.56 74.41 25.64Q73.83 26.73 73.83 28.23L73.83 28.23Q73.83 29.77 74.41 30.86Q74.99 31.95 75.98 32.51Q76.98 33.06 78.14 33.06ZM100.68 47.52L100.68 47.52Q98.33 47.52 96.23 46.82Q94.13 46.12 92.64 44.72Q91.16 43.32 90.60 41.22L90.60 41.22L95.71 39.44Q96.30 40.87 97.54 41.74Q98.79 42.62 100.47 42.62L100.47 42.62Q101.94 42.62 102.95 42.01Q103.97 41.40 104.49 40.26Q105.02 39.12 105.02 37.55L105.02 37.55L105.02 33.70Q104.32 35.83 102.69 37.04Q101.06 38.24 98.82 38.24L98.82 38.24Q96.27 38.24 94.36 36.91Q92.45 35.59 91.38 33.33Q90.32 31.07 90.32 28.23L90.32 28.23Q90.32 25.43 91.38 23.16Q92.45 20.88 94.36 19.55Q96.27 18.22 98.82 18.22L98.82 18.22Q101.06 18.22 102.69 19.43Q104.32 20.64 105.02 22.81L105.02 22.81L105.02 18.47L110.90 18.47L110.90 37.55Q110.90 39.51 110.30 41.31Q109.71 43.11 108.46 44.51Q107.22 45.91 105.30 46.72Q103.37 47.52 100.68 47.52ZM100.68 33.10L100.68 33.10Q101.87 33.10 102.85 32.52Q103.83 31.95 104.42 30.86Q105.02 29.77 105.02 28.23L105.02 28.23Q105.02 26.70 104.42 25.63Q103.83 24.56 102.85 23.96Q101.87 23.37 100.68 23.37L100.68 23.37Q99.52 23.37 98.54 23.96Q97.56 24.56 96.97 25.63Q96.37 26.70 96.37 28.23L96.37 28.23Q96.37 29.77 96.97 30.86Q97.56 31.95 98.54 32.52Q99.52 33.10 100.68 33.10ZM119.96 38L114.05 38L114.05 18.47L119.96 18.47L119.96 38ZM119.96 29.60L119.05 29.60L119.96 23.20Q120.59 20.92 122.17 19.61Q123.74 18.29 126.19 18.29L126.19 18.29L126.19 24.45Q125.81 24.38 125.46 24.35Q125.11 24.31 124.76 24.31L124.76 24.31Q123.46 24.31 122.38 24.93Q121.29 25.54 120.63 26.71Q119.96 27.88 119.96 29.60L119.96 29.60ZM135.36 38.24L135.36 38.24Q132.81 38.24 130.90 36.91Q128.99 35.59 127.96 33.33Q126.93 31.07 126.93 28.23L126.93 28.23Q126.93 25.43 127.96 23.16Q128.99 20.88 130.90 19.55Q132.81 18.22 135.36 18.22L135.36 18.22Q137.60 18.22 139.26 19.43Q140.93 20.64 141.59 22.81L141.59 22.81L141.59 18.47L147.51 18.47L147.51 38L144.60 38Q143.20 38 142.40 37.21Q141.59 36.42 141.59 35.02L141.59 35.02L141.59 33.70Q140.93 35.83 139.26 37.04Q137.60 38.24 135.36 38.24ZM137.29 33.06L137.29 33.06Q138.44 33.06 139.42 32.51Q140.40 31.95 141.00 30.86Q141.59 29.77 141.59 28.23L141.59 28.23Q141.59 26.73 141.00 25.64Q140.40 24.56 139.42 23.96Q138.44 23.37 137.29 23.37L137.29 23.37Q136.10 23.37 135.12 23.96Q134.14 24.56 133.56 25.64Q132.98 26.73 132.98 28.23L132.98 28.23Q132.98 29.77 133.56 30.86Q134.14 31.95 135.13 32.51Q136.13 33.06 137.29 33.06ZM156.57 38L150.66 38L150.66 18.47L156.57 18.47L156.57 22.63Q156.99 21.27 157.92 20.29Q158.85 19.31 160.09 18.77Q161.33 18.22 162.63 18.22L162.63 18.22Q165.29 18.22 166.98 19.76Q168.68 21.30 169.07 24.03L169.07 24.03Q169.45 22.11 170.47 20.83Q171.48 19.55 172.90 18.89Q174.32 18.22 175.93 18.22L175.93 18.22Q179.53 18.22 181.51 20.43Q183.49 22.63 183.49 26.55L183.49 26.55L183.49 38L177.61 38L177.61 27.46Q177.61 25.47 176.57 24.31Q175.54 23.16 173.83 23.16L173.83 23.16Q172.11 23.16 171.08 24.49Q170.05 25.82 170.05 27.81L170.05 27.81L170.05 38L164.13 38L164.13 27.46Q164.13 25.47 163.12 24.31Q162.10 23.16 160.39 23.16L160.39 23.16Q159.23 23.16 158.39 23.77Q157.55 24.38 157.06 25.43Q156.57 26.48 156.57 27.81L156.57 27.81L156.57 38Z" fill="#ff630B"></path></g>
            
          </svg>