
          <svg data-logo="logo" xmlns="http://www.w3.org/2000/svg" viewBox="0 0 41 40">
            <g id="logogram" transform="translate(0, 0) rotate(0)"><path d="M20.0277 10C20.0277 15.5228 15.5506 20 10.0277 20H0.02771V10C0.02771 4.47715 4.50486 0 10.0277 0C15.5506 0 20.0277 4.47715 20.0277 10Z" fill="#FF630B"/><path d="M20.0277 30C20.0277 24.4772 24.5049 20 30.0277 20H40.0277V30C40.0277 35.5228 35.5506 40 30.0277 40C24.5049 40 20.0277 35.5228 20.0277 30Z" fill="#FF630B"/><path d="M0.02771 30C0.02771 35.5228 4.50486 40 10.0277 40H20.0277V30C20.0277 24.4772 15.5506 20 10.0277 20C4.50486 20 0.02771 24.4772 0.02771 30Z" fill="#FF630B"/><path d="M40.0277 10C40.0277 4.47715 35.5506 0 30.0277 0H20.0277V10C20.0277 15.5228 24.5049 20 30.0277 20C35.5506 20 40.0277 15.5228 40.0277 10Z" fill="#FF630B"/></g>
            <g id="logotype" transform="translate(41, 20)"></g>
            
          </svg>
        